<svg xmlns="http://www.w3.org/2000/svg" xmlns:xlink="http://www.w3.org/1999/xlink" width="500" viewBox="0 0 375 374.999991" height="500" preserveAspectRatio="xMidYMid meet"><defs><g></g><clipPath id="2a9c59699d"><path d="M 13.25 213 L 14 213 L 14 226 L 13.25 226 Z M 13.25 213 " clip-rule="nonzero"></path></clipPath></defs><path fill="#000000" d="M 41.816406 169.296875 C 41.746094 168.933594 40.78125 170.902344 40.164062 173.148438 C 39.671875 175.46875 39.457031 177.285156 39.804688 176.679688 C 39.992188 176.355469 40.390625 174.945312 40.691406 174.027344 C 41.214844 171.769531 41.96875 169.683594 41.816406 169.296875 Z M 37.414062 187.050781 C 37.363281 187.117188 37.15625 187.902344 37.015625 188.378906 C 37.019531 188.683594 36.996094 189.300781 37.046875 189.214844 C 37.097656 189.136719 37.1875 188.34375 37.359375 187.878906 C 37.382812 187.574219 37.46875 186.976562 37.414062 187.050781 Z M 348.75 262.675781 C 348.378906 263.644531 347.949219 264.753906 347.535156 265.820312 C 348.460938 262.269531 349.472656 258.296875 350.539062 252.832031 C 351.773438 247.664062 352.925781 242.613281 353.144531 237.582031 C 354.945312 222.089844 354.40625 205.480469 351.488281 189.257812 C 349.550781 176.417969 345.199219 164.65625 340.46875 154.035156 C 338.242188 149.75 335.832031 145.304688 333.59375 140.476562 C 330.0625 134.746094 327.007812 128.941406 322.761719 123.785156 C 320.246094 120.675781 317.875 117.367188 315.226562 114.277344 L 306.886719 105.332031 C 292.761719 91.089844 275.890625 79.609375 257.414062 71.6875 C 254.253906 70.078125 250.917969 68.894531 247.546875 67.824219 L 237.488281 64.421875 C 230.554688 63.066406 223.792969 60.742188 216.714844 60.222656 C 193.125 56.953125 168.839844 58.894531 146.082031 66.097656 C 127.628906 71.957031 110.3125 81.539062 95.292969 93.753906 C 93.4375 95.015625 91.875 96.691406 90.222656 98.128906 C 78.59375 107.570312 69.5 119.675781 61.46875 131.996094 C 50.179688 150.347656 42.53125 170.871094 39.132812 192.195312 C 38.625 196.96875 37.679688 201.734375 37.550781 206.566406 C 37.523438 211.398438 37.226562 216.242188 37.382812 221.0625 C 37.976562 236.289062 40.980469 251.3125 45.605469 265.789062 C 50.507812 280.210938 57.6875 293.742188 66.230469 306.28125 C 67.140625 307.457031 68.054688 308.644531 68.945312 309.796875 L 74.617188 317.339844 L 81.023438 324.261719 C 85.070312 329.101562 90.183594 332.847656 94.785156 337.113281 C 96.144531 338.441406 97.824219 339.703125 99.246094 340.871094 C 100.464844 341.851562 100.210938 341.789062 98.800781 340.796875 C 95.050781 338.433594 92.035156 335.164062 88.613281 332.382812 C 85.152344 329.617188 82.125 326.40625 79.136719 323.148438 C 76.648438 320.417969 73.851562 317.742188 71.773438 314.832031 C 64.683594 306.519531 58.957031 297.394531 54.746094 292.058594 C 53.589844 290.371094 51.730469 286.863281 50.019531 283.226562 C 49.5 282.117188 49.109375 281.066406 48.785156 280.199219 C 48.679688 279.90625 48.863281 280.03125 49.078125 280.355469 C 49.566406 281.152344 50.1875 282.167969 50.746094 283.078125 C 51.304688 283.976562 51.910156 284.957031 52.375 285.707031 C 52.574219 286.003906 52.644531 285.929688 52.582031 285.675781 C 52.519531 285.414062 52.246094 284.664062 52.023438 284.222656 C 49.875 280.332031 48.261719 276.191406 46.710938 272.085938 C 45.277344 268.40625 44.007812 265.902344 43.238281 264.625 C 42.84375 263.917969 42.480469 263.363281 42.003906 262.28125 C 41.324219 260.742188 40.488281 258.113281 39.644531 255.019531 C 39.277344 253.574219 38.894531 252.078125 38.546875 250.71875 C 37.902344 246.230469 37.257812 241.84375 36.484375 237.554688 C 35.683594 233.265625 35.605469 228.976562 34.953125 224.800781 C 34.378906 221.410156 34.355469 217.679688 34.613281 213.835938 C 34.753906 210.414062 34.628906 208.117188 34.40625 206.453125 C 34.285156 205.296875 34 204.320312 34.050781 203.003906 C 34.046875 201.683594 33.980469 200.289062 34.164062 198.460938 C 34.523438 194.21875 34.824219 190.644531 35.101562 187.355469 C 35.585938 184.085938 36.023438 181.097656 36.480469 178.019531 C 36.710938 176.480469 37.191406 174.011719 37.820312 171.636719 C 38.640625 169.3125 39.507812 167.054688 40.089844 165.816406 C 40.964844 164.050781 41.582031 162.808594 42.398438 161.160156 C 43.703125 158.105469 45.355469 154.144531 46.457031 150.871094 C 46.84375 149.609375 46.953125 148.851562 47.433594 147.417969 C 47.90625 146.023438 48.597656 144.011719 49.355469 142.34375 C 52.761719 136.027344 55.566406 130.5625 58.980469 124.9375 C 59.324219 124.441406 60.0625 123.496094 60.277344 123.28125 C 60.808594 122.746094 61.523438 122.019531 61.484375 122.269531 C 61.421875 122.695312 60.792969 123.875 60.519531 124.585938 C 59.132812 127.511719 57.675781 132.074219 52.050781 141.585938 C 50.261719 145.476562 48.84375 149.347656 47.28125 153.160156 C 46.503906 155.0625 46.1875 156.601562 46.769531 155.542969 C 47.324219 154.527344 48.03125 153.253906 48.535156 152.132812 L 52.449219 143.355469 C 53.839844 140.476562 55.589844 137.785156 57.132812 134.984375 C 60.089844 129.285156 63.914062 124.144531 67.679688 118.953125 C 69.941406 115.464844 72.867188 112.5 75.589844 109.367188 C 78.324219 106.238281 81.035156 103.082031 84.203125 100.378906 C 86.414062 98.324219 88.820312 96.078125 90.792969 94.238281 C 98.117188 87.796875 105.925781 82.222656 114.503906 77.542969 C 118.855469 74.78125 123.984375 72.925781 128.597656 70.460938 C 145.125 62.945312 162.925781 58.429688 180.972656 56.636719 C 186.601562 56.179688 192.257812 55.585938 197.941406 55.960938 L 206.464844 56.152344 C 209.292969 56.375 212.105469 56.828125 214.925781 57.148438 C 222.878906 57.757812 230.550781 59.980469 238.328125 61.644531 C 245.8125 64.3125 253.589844 66.28125 260.695312 69.921875 C 264.792969 71.855469 269.203125 73.515625 272.890625 75.800781 C 282.238281 80.632812 291.046875 86.707031 299.003906 93.601562 C 314.417969 106.941406 327.609375 123.054688 337.078125 141.171875 C 338.996094 145.253906 341.164062 149.242188 343.015625 153.382812 L 347.9375 166.097656 C 350.554688 174.789062 352.964844 183.585938 354.210938 192.609375 C 354.855469 195.582031 355.148438 198.847656 355.34375 201.574219 C 356.09375 207.875 356.632812 214.226562 356.207031 220.609375 C 356.304688 227.007812 355.324219 233.34375 354.394531 239.691406 C 354.199219 241.171875 353.988281 242.804688 353.8125 244.183594 C 352.175781 251.425781 351.019531 257.195312 348.75 262.675781 " fill-opacity="1" fill-rule="nonzero"></path><path fill="#000000" d="M 31.636719 278.261719 C 30.496094 275.210938 29.179688 272.195312 28.144531 269.097656 C 27.273438 265.949219 26.410156 262.816406 25.558594 259.742188 C 23.484375 253.035156 22.808594 246.054688 21.5 239.226562 C 20.636719 232.335938 20.171875 225.375 19.917969 218.429688 C 19.605469 200.191406 22.542969 182.320312 27.230469 165.140625 C 29.429688 158.835938 30.964844 152.558594 34.042969 147.191406 C 37.203125 140.90625 40.078125 134.222656 43.898438 127.929688 C 45.054688 125.839844 46.179688 123.808594 47.351562 121.691406 C 48.90625 118.902344 51.0625 116.425781 51.171875 116.140625 C 53.898438 112.542969 54.878906 111.253906 55.820312 110.011719 C 56.6875 108.804688 57.734375 107.269531 58.210938 106.460938 C 61.6875 101.800781 58.683594 102.953125 53.859375 109.472656 C 51.003906 113.375 47.71875 117.109375 45.339844 121.496094 C 42.644531 126.539062 39.53125 131.375 37.027344 136.5625 C 34.707031 141.835938 32.089844 147.03125 29.929688 152.464844 C 23.683594 168.746094 20.015625 185.972656 18.488281 203.339844 C 18.355469 209.089844 18.21875 215.238281 18.324219 220.402344 C 18.808594 225.511719 19.300781 230.6875 19.800781 235.933594 C 20.496094 241.148438 21.578125 246.382812 22.457031 251.71875 C 24.695312 261.328125 27.300781 270.875 31.148438 279.921875 C 32.054688 282.25 32.800781 283.636719 33.085938 283.738281 C 33.429688 283.855469 32.613281 280.785156 31.636719 278.261719 " fill-opacity="1" fill-rule="nonzero"></path><path fill="#000000" d="M 74.875 97.328125 C 79.203125 93.59375 82.945312 90.230469 86.257812 87.0625 C 89.804688 84.171875 92.992188 81.558594 95.84375 78.902344 C 98.121094 76.667969 100.179688 74.902344 102.304688 73.269531 C 105.929688 70.328125 104.867188 70.328125 99.035156 73.304688 C 95.847656 74.972656 92.707031 77.304688 88.574219 80.277344 C 87.308594 81.253906 85.867188 82.363281 84.804688 83.1875 C 82.097656 85.648438 79.539062 88.347656 76.773438 90.976562 C 73.988281 93.582031 71.1875 96.320312 68.570312 99.5 C 66.226562 102.152344 64.070312 105.214844 64.332031 105.386719 C 64.621094 105.585938 65.089844 105.582031 65.609375 105.519531 C 66.667969 105.414062 69.566406 102.722656 74.875 97.328125 " fill-opacity="1" fill-rule="nonzero"></path><path fill="#000000" d="M 175.226562 35.742188 C 176.058594 35.675781 176.933594 35.605469 177.78125 35.539062 C 188.855469 34.292969 199.980469 34.433594 211.097656 35.363281 C 216.921875 36.230469 223.019531 36.625 228.863281 37.78125 C 231.160156 38.246094 233.386719 38.695312 236.492188 39.324219 C 234.132812 38.703125 232.804688 38.359375 231.386719 37.988281 C 200.632812 30.800781 167.550781 33.699219 137.441406 43.226562 C 132.683594 45.023438 127.875 46.839844 123.054688 48.664062 L 109.199219 55.5 L 106.972656 56.648438 C 104.726562 58.042969 102.273438 59.914062 103.523438 59.269531 C 104.613281 58.707031 105.992188 58.011719 107.171875 57.289062 C 128.113281 45.714844 151.335938 38.113281 175.226562 35.742188 " fill-opacity="1" fill-rule="nonzero"></path><path fill="#000000" d="M 325.585938 311.40625 C 328.226562 307.835938 330.621094 305.070312 332.222656 301.691406 C 333.449219 299.398438 334.65625 296.652344 333.996094 297.386719 C 333.417969 298.027344 332.492188 299.144531 331.625 300.550781 C 328.621094 305.871094 324.371094 310.375 320.835938 315.359375 C 316.871094 320.019531 312.613281 324.464844 308.34375 328.882812 C 306.390625 330.609375 304.222656 332.804688 302.207031 334.769531 C 300.847656 336.089844 300.566406 336.851562 301.820312 335.851562 C 304.078125 334.035156 306.246094 332.289062 308.8125 330.230469 C 314.644531 324.46875 320.9375 318.269531 325.585938 311.40625 " fill-opacity="1" fill-rule="nonzero"></path><path fill="#000000" d="M 359.761719 195.246094 C 360.617188 199.964844 361.054688 202.203125 361.835938 202.332031 C 361.835938 202.332031 362.039062 200.097656 361.953125 197.382812 C 361.628906 192.929688 360.710938 188.339844 359.871094 183.769531 C 359.09375 178.949219 357.558594 175.949219 356.992188 175.183594 C 356.234375 174.34375 355.941406 175.1875 357.011719 180.230469 C 357.660156 185.367188 358.664062 190.664062 359.761719 195.246094 " fill-opacity="1" fill-rule="nonzero"></path><path fill="#000000" d="M 131.613281 51.316406 C 131.367188 51.347656 130.574219 51.566406 129.984375 51.785156 C 126.9375 52.875 123.890625 54.035156 121.019531 55.558594 L 121.027344 55.59375 L 112.203125 59.945312 C 100.875 66.300781 99.027344 68.242188 100.96875 68.195312 C 101.339844 68.210938 101.746094 68.207031 102.617188 67.894531 C 103.097656 67.71875 104.53125 66.925781 105.664062 66.300781 C 106.042969 66.089844 107.179688 65.347656 107.367188 65.183594 C 109.28125 63.378906 112.144531 61.539062 115.6875 59.558594 C 119.253906 57.660156 123.214844 55.011719 128.015625 53.160156 C 129.347656 52.609375 130.460938 52.070312 131.441406 51.59375 C 131.84375 51.398438 131.863281 51.285156 131.613281 51.316406 " fill-opacity="1" fill-rule="nonzero"></path><path fill="#000000" d="M 358.980469 222.8125 C 358.847656 226.242188 358.566406 229.851562 357.910156 233.441406 C 357.785156 234.300781 357.789062 235.5625 357.734375 236.644531 C 357.890625 236.46875 358.023438 236.820312 358.207031 236.035156 C 359.378906 230.878906 360.421875 228.222656 361.054688 228.144531 C 361.1875 228.136719 361.339844 227.140625 361.480469 226.609375 C 361.71875 225.71875 361.960938 220.882812 361.84375 218.671875 C 361.761719 217.0625 361.609375 215.058594 361.445312 215.144531 C 360.890625 215.445312 360.316406 216.496094 359.746094 217.429688 C 359.441406 217.933594 359.164062 219.933594 358.980469 222.8125 " fill-opacity="1" fill-rule="nonzero"></path><path fill="#000000" d="M 75.296875 87.808594 C 79.726562 83.6875 83.152344 80.042969 83.53125 79.25 C 82.824219 79.683594 82.007812 79.882812 80.664062 80.964844 C 77.46875 83.550781 73.144531 87.640625 70.773438 90.238281 C 68.953125 92.230469 68.746094 92.953125 70.859375 91.46875 C 71.792969 90.816406 73.84375 89.144531 75.296875 87.808594 " fill-opacity="1" fill-rule="nonzero"></path><path fill="#000000" d="M 321.460938 328.507812 C 321.058594 328.910156 319.925781 330.375 319.128906 331.351562 C 319.222656 331.453125 319.027344 331.898438 319.460938 331.59375 C 321.488281 330.011719 325.398438 326.660156 329.65625 321.0625 C 330.386719 320.054688 331.402344 318.472656 331.5625 318.085938 C 331.714844 317.726562 331.097656 318.265625 330.476562 319 C 327.886719 322.324219 324.675781 325.332031 321.460938 328.507812 " fill-opacity="1" fill-rule="nonzero"></path><path fill="#000000" d="M 316.851562 339.285156 C 314.535156 341.519531 312.550781 343.734375 312.792969 343.824219 C 313.0625 344.078125 314.882812 342.800781 316.8125 341.40625 C 317.167969 341.152344 317.980469 340.503906 318.25 340.234375 C 319.191406 339.355469 320.425781 338.035156 320.574219 337.664062 C 321.222656 336.445312 321.660156 335.453125 321.898438 334.675781 C 322.007812 334.046875 319.164062 337.292969 316.851562 339.285156 " fill-opacity="1" fill-rule="nonzero"></path><path fill="#000000" d="M 77.597656 103.886719 C 77.375 104.304688 77.527344 104.386719 78.019531 103.972656 C 78.507812 103.546875 79.636719 102.316406 80.621094 101.578125 C 83.671875 98.746094 85.605469 96.695312 85.957031 95.871094 C 86.0625 95.625 85.53125 95.882812 84.835938 96.417969 C 84.148438 96.945312 82.792969 98.136719 81.882812 99 C 79.636719 101.054688 78.09375 102.816406 77.597656 103.886719 " fill-opacity="1" fill-rule="nonzero"></path><path fill="#000000" d="M 123.480469 59.53125 C 123.214844 59.640625 122.414062 59.96875 121.871094 60.1875 C 121.199219 60.519531 120.449219 60.882812 119.867188 61.164062 C 114.035156 64.261719 112.484375 65.75 116.84375 64.089844 C 117.59375 63.800781 119.796875 62.761719 120.632812 62.292969 C 124.695312 60.03125 125.859375 58.855469 123.480469 59.53125 " fill-opacity="1" fill-rule="nonzero"></path><path fill="#000000" d="M 22.570312 160.667969 C 22.738281 160.09375 22.816406 159.582031 22.753906 159.597656 C 22.6875 159.613281 22.382812 160.347656 22.164062 160.8125 C 19.695312 166.929688 18.445312 173.507812 17.226562 179.761719 C 17.125 180.324219 17.121094 180.769531 17.1875 180.730469 C 17.257812 180.6875 17.480469 180.089844 17.632812 179.5 C 19.316406 173.117188 20.578125 166.664062 22.570312 160.667969 " fill-opacity="1" fill-rule="nonzero"></path><path fill="#000000" d="M 49.65625 107.65625 C 50.964844 105.828125 51.382812 105.070312 50.746094 105.761719 C 50.484375 106.042969 49.789062 106.949219 49.347656 107.5625 C 46.925781 111.050781 44.277344 114.386719 42.074219 118.007812 L 35.746094 129.035156 C 35.492188 129.480469 35.378906 129.871094 35.203125 130.285156 C 35.492188 129.894531 35.84375 129.488281 36.054688 129.117188 L 42.398438 118.089844 C 44.613281 114.480469 47.242188 111.140625 49.65625 107.65625 " fill-opacity="1" fill-rule="nonzero"></path><path fill="#000000" d="M 358.738281 172.566406 C 359.214844 173.347656 359 171.519531 358.234375 168.296875 C 357.601562 165.175781 356.324219 161.910156 355.753906 161.382812 C 355.203125 160.839844 355.765625 162.578125 356.492188 165.523438 C 357.191406 168.449219 358.242188 171.75 358.738281 172.566406 " fill-opacity="1" fill-rule="nonzero"></path><path fill="#000000" d="M 341.789062 288.941406 C 341.660156 288.761719 341.308594 289.035156 340.808594 289.71875 C 340.5625 290.074219 339.757812 291.804688 339.023438 292.816406 C 337.796875 295.0625 337.105469 296.671875 337.191406 297.171875 C 337.246094 297.507812 337.882812 296.765625 339.132812 294.804688 C 340.808594 292.414062 341.992188 289.21875 341.789062 288.941406 " fill-opacity="1" fill-rule="nonzero"></path><path fill="#000000" d="M 178.578125 49.015625 C 178.3125 48.992188 177.011719 49.058594 176.457031 49.121094 C 172.148438 49.730469 170.070312 50.796875 172.246094 50.730469 C 172.679688 50.769531 175.074219 50.269531 176.105469 50.25 C 179.222656 49.902344 180.070312 49.570312 180.277344 49.269531 C 179.742188 49.179688 179.34375 49.074219 178.578125 49.015625 " fill-opacity="1" fill-rule="nonzero"></path><path fill="#000000" d="M 122.34375 66.230469 C 123.816406 65.242188 123.96875 64.890625 122.53125 65.308594 C 122.226562 65.398438 121.523438 65.660156 121.113281 65.863281 C 119.964844 66.445312 118.394531 67.230469 117.855469 67.578125 C 116.78125 68.277344 116.289062 68.734375 115.644531 69.222656 C 116.238281 69.097656 116.5 69.121094 117.242188 68.867188 C 118.25 68.527344 121.273438 66.953125 122.34375 66.230469 " fill-opacity="1" fill-rule="nonzero"></path><path fill="#000000" d="M 320.710938 320.667969 C 320.96875 320.203125 320.863281 320.070312 320.460938 320.339844 C 320.105469 320.574219 319.050781 321.53125 318.425781 322.230469 C 317.730469 323.007812 317.179688 323.863281 316.554688 324.6875 C 316.636719 324.804688 316.46875 325.222656 316.878906 324.945312 C 317.238281 324.707031 318.28125 323.757812 318.945312 323.015625 C 319.613281 322.269531 320.476562 321.09375 320.710938 320.667969 " fill-opacity="1" fill-rule="nonzero"></path><path fill="#000000" d="M 86.460938 70.503906 C 87.453125 69.675781 87.375 69.664062 85.855469 70.78125 C 81.328125 74.058594 77 77.34375 73.570312 81.085938 C 72.351562 82.324219 72.421875 82.304688 73.90625 81.011719 C 78.125 77.070312 82.34375 74.003906 86.460938 70.503906 " fill-opacity="1" fill-rule="nonzero"></path><path fill="#000000" d="M 281.308594 56.917969 C 283.460938 58.1875 285.804688 59.28125 285.070312 58.667969 C 284.625 58.296875 283.066406 57.257812 282.136719 56.734375 C 280.289062 55.671875 278.53125 54.765625 276.621094 54.054688 C 277.078125 54.378906 277.132812 54.5 277.605469 54.746094 C 278.804688 55.300781 280.023438 56.183594 281.308594 56.917969 " fill-opacity="1" fill-rule="nonzero"></path><g clip-path="url(#2a9c59699d)"><path fill="#000000" d="M 13.792969 218.082031 C 13.773438 216.5625 13.75 215.019531 13.730469 213.78125 C 13.65625 211.765625 13.488281 214.003906 13.375 218.914062 C 13.265625 220.574219 13.523438 222.242188 13.617188 223.878906 C 13.703125 224.601562 13.773438 225.242188 13.855469 225.917969 C 13.875 224.949219 13.941406 224.15625 13.898438 222.953125 C 13.816406 221.511719 13.722656 219.65625 13.792969 218.082031 " fill-opacity="1" fill-rule="nonzero"></path></g><path fill="#000000" d="M 157.667969 48.449219 C 156.632812 48.773438 155.570312 49.199219 155.460938 49.335938 C 155.242188 49.671875 157.59375 48.996094 159.71875 48.621094 C 160.78125 48.398438 161.332031 48.164062 162.117188 47.929688 C 161.992188 47.761719 159.75 47.910156 157.667969 48.449219 " fill-opacity="1" fill-rule="nonzero"></path><path fill="#000000" d="M 349.050781 277.789062 C 349.457031 276.582031 349.074219 277.082031 348.277344 278.683594 C 347.992188 279.257812 347.5 280.351562 347.398438 280.660156 C 347.117188 281.511719 346.953125 282.167969 346.855469 282.675781 C 346.835938 282.773438 347.359375 281.785156 347.632812 281.292969 C 348.117188 280.09375 348.730469 278.578125 349.050781 277.789062 " fill-opacity="1" fill-rule="nonzero"></path><path fill="#000000" d="M 345.355469 274.535156 C 345.394531 274.410156 345.804688 273.214844 346 272.644531 C 346.949219 269.480469 346.96875 268.519531 347.089844 267.339844 C 346.140625 270.261719 345.09375 273.378906 344.773438 275.21875 C 344.691406 275.6875 345.09375 274.976562 345.355469 274.535156 " fill-opacity="1" fill-rule="nonzero"></path><path fill="#000000" d="M 347.089844 267.339844 C 347.214844 266.90625 347.304688 266.605469 347.433594 266.179688 C 347.457031 266.085938 347.507812 265.921875 347.535156 265.820312 L 347.25 266.5625 C 347.214844 266.738281 347.125 267.167969 347.089844 267.339844 " fill-opacity="1" fill-rule="nonzero"></path><path fill="#000000" d="M 156.5625 54.96875 C 156.234375 55.027344 155.238281 55.285156 154.792969 55.429688 C 153.324219 55.90625 153.128906 56.082031 154.277344 55.886719 C 154.597656 55.804688 155.449219 55.585938 156.019531 55.4375 C 157.492188 54.949219 157.738281 54.765625 156.5625 54.96875 " fill-opacity="1" fill-rule="nonzero"></path><path fill="#000000" d="M 132.144531 65.328125 C 132.832031 64.964844 133.402344 64.660156 134.003906 64.339844 L 132.390625 64.84375 L 130.597656 65.8125 C 131.136719 65.640625 132.09375 65.34375 132.144531 65.328125 " fill-opacity="1" fill-rule="nonzero"></path><path fill="#000000" d="M 351.003906 160.324219 C 350.304688 158.78125 350.269531 159.023438 350.921875 160.925781 C 351.121094 161.394531 351.433594 162.132812 351.691406 162.75 C 351.707031 162.609375 351.824219 162.679688 351.707031 162.277344 C 351.582031 161.839844 351.179688 160.710938 351.003906 160.324219 " fill-opacity="1" fill-rule="nonzero"></path><path fill="#000000" d="M 173.132812 54.34375 L 173.277344 54.1875 L 171.996094 54.46875 Z M 173.132812 54.34375 " fill-opacity="1" fill-rule="nonzero"></path><path fill="#000000" d="M 71.964844 104.765625 L 71.238281 105.4375 L 71.054688 105.835938 Z M 71.964844 104.765625 " fill-opacity="1" fill-rule="nonzero"></path><path fill="#000000" d="M 256.644531 62.269531 L 256.46875 62.027344 C 256.128906 61.886719 255.757812 61.835938 255.402344 61.738281 C 255.820312 61.898438 256.246094 62.050781 256.644531 62.269531 " fill-opacity="1" fill-rule="nonzero"></path><path fill="#000000" d="M 307.925781 83.394531 L 306.726562 82.363281 L 307.585938 83.242188 Z M 307.925781 83.394531 " fill-opacity="1" fill-rule="nonzero"></path><g fill="#000000" fill-opacity="1"><g transform="translate(92.039758, 283.67592)"><g><path d="M 95.007812 -128.101562 L 62.609375 -64.667969 L 20.183594 -121.65625 L -0.902344 -119.839844 L 9.351562 -0.804688 L 31.96875 -2.753906 L 25.507812 -77.746094 L 58.628906 -33.316406 L 72.0625 -34.472656 L 97.097656 -83.910156 L 103.558594 -8.921875 L 126.175781 -10.867188 L 115.921875 -129.902344 Z M 95.007812 -128.101562 "></path></g></g></g><g fill="#000000" fill-opacity="1"><g transform="translate(227.56332, 272.002008)"><g><path d="M 30.109375 -24.351562 L 21.714844 -121.789062 L -0.902344 -119.839844 L 9.351562 -0.804688 L 80.773438 -6.957031 L 78.914062 -28.554688 Z M 30.109375 -24.351562 "></path></g></g></g></svg>